<svg version="1.1" xmlns="http://www.w3.org/2000/svg" xmlns:xlink="http://www.w3.org/1999/xlink">
	<symbol id="icon1" viewBox="0 0 120 120">
	    <!-- Generator: sketchtool 50.2 (55047) - http://www.bohemiancoding.com/sketch -->
	    <title>023ECCAC-81B3-41C3-B7E2-D5E22209FF5B</title>
	    <desc>Created with sketchtool.</desc>
	    <defs></defs>
	    <g stroke="none" stroke-width="1" fill="none" fill-rule="evenodd">
	        <g transform="translate(-356.000000, -2278.000000)">
	            <g transform="translate(324.000000, 2266.000000)">
	                <g>
	                    <g>
	                        <g>
	                            <g transform="translate(0.000000, 12.000000)">
	                                <g transform="translate(32.000000, 0.000000)">
	                                    <circle fill="#FF7900" cx="60" cy="60" r="60"></circle>
	                                    <g transform="translate(40.000000, 35.000000)" fill="#FFFFFF" fill-rule="nonzero">
	                                        <path d="M40.4303711,14.5263672 C40.9696289,14.5263672 41.4069336,14.0891602 41.4069336,13.5498047 L41.4069336,2.9296875 C41.4069336,1.31425781 40.0926758,0 38.4772461,0 L2.93037109,0 C1.31494141,0 0.00068359375,1.31425781 0.00068359375,2.9296875 L0.00068359375,47.0703125 C0.00068359375,48.6857422 1.31494141,50 2.93037109,50 L38.4772461,50 C40.0926758,50 41.4069336,48.6857422 41.4069336,47.0703125 L41.4069336,39.8757812 C41.4069336,39.3364258 40.9696289,38.8992187 40.4303711,38.8992187 C39.8911133,38.8992187 39.4538086,39.3364258 39.4538086,39.8757812 L39.4538086,47.0703125 C39.4538086,47.6087891 39.0157227,48.046875 38.4772461,48.046875 L2.93037109,48.046875 C2.39189453,48.046875 1.95380859,47.6087891 1.95380859,47.0703125 L1.95380859,2.9296875 C1.95380859,2.39121094 2.39189453,1.953125 2.93037109,1.953125 L38.4772461,1.953125 C39.0157227,1.953125 39.4538086,2.39121094 39.4538086,2.9296875 L39.4538086,13.5498047 C39.4538086,14.0891602 39.8911133,14.5263672 40.4303711,14.5263672 Z"></path>
	                                        <path d="M20.7038086,5.2734375 C15.7498047,5.2734375 11.7194336,9.30380859 11.7194336,14.2578125 C11.7194336,16.827832 12.8043945,19.1489258 14.5399414,20.7879883 C14.5724609,20.8227539 14.6070313,20.8556641 14.6448242,20.8856445 C16.2435547,22.3484375 18.3711914,23.2420898 20.7037109,23.2420898 C23.0362305,23.2420898 25.1638672,22.3483398 26.7625977,20.8856445 C26.8003906,20.8556641 26.8349609,20.8226563 26.8674805,20.7879883 C28.6032227,19.1489258 29.6881836,16.827832 29.6881836,14.2578125 C29.6881836,9.30380859 25.6578125,5.2734375 20.7038086,5.2734375 Z M20.7038086,21.2890625 C19.1091797,21.2890625 17.6375,20.7546875 16.4566406,19.8566406 C17.3149414,18.334668 18.9166016,17.3828125 20.7038086,17.3828125 C22.4910156,17.3828125 24.0926758,18.334668 24.9509766,19.8566406 C23.7700195,20.7546875 22.2984375,21.2890625 20.7038086,21.2890625 Z M19.1413086,13.8671875 L19.1413086,13.2324219 C19.1413086,12.3708984 19.8422852,11.6699219 20.7038086,11.6699219 C21.565332,11.6699219 22.2663086,12.3708984 22.2663086,13.2324219 L22.2663086,13.8671875 C22.2663086,14.7287109 21.565332,15.4296875 20.7038086,15.4296875 C19.8422852,15.4296875 19.1413086,14.7287109 19.1413086,13.8671875 Z M26.3620117,18.4260742 C25.6417969,17.3579102 24.6436523,16.5271484 23.4847656,16.0142578 C23.9447266,15.4198242 24.2194336,14.6751953 24.2194336,13.8671875 L24.2194336,13.2324219 C24.2194336,11.2938477 22.6423828,9.71679688 20.7038086,9.71679688 C18.7652344,9.71679688 17.1881836,11.2938477 17.1881836,13.2324219 L17.1881836,13.8671875 C17.1881836,14.6751953 17.4628906,15.4198242 17.9228516,16.0142578 C16.7639648,16.5271484 15.7658203,17.3579102 15.0456055,18.4260742 C14.1833984,17.2587891 13.6725586,15.8170898 13.6725586,14.2578125 C13.6725586,10.3807617 16.8267578,7.2265625 20.7038086,7.2265625 C24.5808594,7.2265625 27.7350586,10.3807617 27.7350586,14.2578125 C27.7350586,15.8170898 27.2242188,17.2587891 26.3620117,18.4260742 Z"></path>
	                                        <path d="M25.9772461,42.7734375 L20.7038086,42.7734375 C20.1645508,42.7734375 19.7272461,43.2106445 19.7272461,43.75 C19.7272461,44.2893555 20.1645508,44.7265625 20.7038086,44.7265625 L25.9772461,44.7265625 C26.5165039,44.7265625 26.9538086,44.2893555 26.9538086,43.75 C26.9538086,43.2106445 26.5165039,42.7734375 25.9772461,42.7734375 Z"></path>
	                                        <path d="M25.9772461,37.3046875 L12.1100586,37.3046875 C11.5708008,37.3046875 11.1334961,37.7418945 11.1334961,38.28125 C11.1334961,38.8206055 11.5708008,39.2578125 12.1100586,39.2578125 L25.9772461,39.2578125 C26.5165039,39.2578125 26.9538086,38.8206055 26.9538086,38.28125 C26.9538086,37.7418945 26.5165039,37.3046875 25.9772461,37.3046875 Z"></path>
	                                        <path d="M25.9772461,31.8359375 L12.1100586,31.8359375 C11.5708008,31.8359375 11.1334961,32.2731445 11.1334961,32.8125 C11.1334961,33.3518555 11.5708008,33.7890625 12.1100586,33.7890625 L25.9772461,33.7890625 C26.5165039,33.7890625 26.9538086,33.3518555 26.9538086,32.8125 C26.9538086,32.2731445 26.5165039,31.8359375 25.9772461,31.8359375 Z"></path>
	                                        <path d="M8.62949219,26.6533203 C8.44794922,26.4716797 8.19599609,26.3671875 7.93818359,26.3671875 C7.68125,26.3671875 7.42929688,26.4716797 7.24775391,26.6533203 C7.06611328,26.8349609 6.96162109,27.0869141 6.96162109,27.34375 C6.96162109,27.6005859 7.06601563,27.8525391 7.24775391,28.0341797 C7.43037109,28.2158203 7.68125,28.3203125 7.93818359,28.3203125 C8.19599609,28.3203125 8.44697266,28.2158203 8.62949219,28.0341797 C8.81113281,27.8525391 8.91572266,27.6005859 8.91572266,27.34375 C8.91572266,27.0869141 8.81123047,26.8349609 8.62949219,26.6533203 Z"></path>
	                                        <path d="M8.62949219,32.1220703 C8.44697266,31.9404297 8.19599609,31.8359375 7.93818359,31.8359375 C7.68125,31.8359375 7.43037109,31.9404297 7.24775391,32.1220703 C7.06611328,32.3037109 6.96162109,32.5556641 6.96162109,32.8125 C6.96162109,33.0693359 7.06601563,33.3212891 7.24775391,33.5029297 C7.43037109,33.6845703 7.68125,33.7890625 7.93818359,33.7890625 C8.19599609,33.7890625 8.44697266,33.6845703 8.62949219,33.5029297 C8.81113281,33.3212891 8.91572266,33.0693359 8.91572266,32.8125 C8.91572266,32.5556641 8.81123047,32.3037109 8.62949219,32.1220703 Z"></path>
	                                        <path d="M8.62949219,37.5908203 C8.44697266,37.4091797 8.19599609,37.3046875 7.93818359,37.3046875 C7.68125,37.3046875 7.43037109,37.4091797 7.24775391,37.5908203 C7.06611328,37.7724609 6.96162109,38.0244141 6.96162109,38.28125 C6.96162109,38.5380859 7.06601563,38.7900391 7.24775391,38.9716797 C7.42929688,39.1533203 7.68125,39.2578125 7.93818359,39.2578125 C8.19599609,39.2578125 8.44794922,39.1533203 8.62949219,38.9716797 C8.81113281,38.7900391 8.91572266,38.5380859 8.91572266,38.28125 C8.91572266,38.0244141 8.81123047,37.7724609 8.62949219,37.5908203 Z"></path>
	                                        <path d="M25.9772461,26.3671875 L12.1100586,26.3671875 C11.5708008,26.3671875 11.1334961,26.8043945 11.1334961,27.34375 C11.1334961,27.8831055 11.5708008,28.3203125 12.1100586,28.3203125 L25.9772461,28.3203125 C26.5165039,28.3203125 26.9538086,27.8831055 26.9538086,27.34375 C26.9538086,26.8043945 26.5165039,26.3671875 25.9772461,26.3671875 Z"></path>
	                                        <path d="M47.9494141,12.7265625 C47.0006836,12.1788086 45.8954102,12.0333008 44.8370117,12.3167969 C43.7788086,12.6003906 42.8942383,13.2791016 42.346582,14.227832 L30.0573242,35.5132812 C29.9900391,35.6299805 29.9474609,35.759375 29.9325195,35.8932617 L29.0674805,43.6416992 C29.0245117,44.0272461 29.2137695,44.4017578 29.549707,44.5958008 C29.7013672,44.6833008 29.8698242,44.7266602 30.0378906,44.7266602 C30.2421875,44.7266602 30.4457031,44.6626953 30.6170898,44.5364258 L36.8948242,39.9129883 C37.0033203,39.8331055 37.0941406,39.7316406 37.1614258,39.6149414 L49.4505859,18.3294922 C50.5814453,16.3708984 49.9080078,13.8574219 47.9494141,12.7265625 Z M31.2561523,41.6400391 L31.7079102,37.5939453 L34.5342773,39.2257812 L31.2561523,41.6400391 Z M35.9583008,37.7925781 L32.2371094,35.6441406 L42.0989258,18.5630859 L45.8201172,20.7115234 L35.9583008,37.7925781 Z M47.7591797,17.352832 L46.796582,19.0201172 L43.0753906,16.8716797 L44.0379883,15.2043945 C44.3249023,14.7074219 44.7881836,14.3519531 45.3424805,14.203418 C45.8969727,14.0547852 46.4758789,14.1311523 46.9727539,14.4180664 C47.4697266,14.7049805 47.8251953,15.1682617 47.9737305,15.7225586 C48.1222656,16.2768555 48.0460938,16.8558594 47.7591797,17.352832 Z"></path>
	                                    </g>
	                                </g>
	                            </g>
	                        </g>
	                    </g>
	                </g>
	            </g>
	        </g>
	    </g>
	</symbol>

	<symbol id="icon2" viewBox="0 0 132 132">
	    <!-- Generator: sketchtool 50.2 (55047) - http://www.bohemiancoding.com/sketch -->
	    <title>1B6EC301-BCA4-408A-93DC-7AAE6C4A2AE0</title>
	    <desc>Created with sketchtool.</desc>
	    <defs></defs>
	    <g stroke="none" stroke-width="1" fill="none" fill-rule="evenodd">
	        <g transform="translate(-805.000000, -1612.000000)">
	            <g transform="translate(60.000000, 1345.000000)">
	                <g transform="translate(715.000000, 132.000000)">
	                    <g transform="translate(0.000000, 135.000000)">
	                        <g transform="translate(30.000000, 0.000000)">
	                            <circle fill="#04B2E2" cx="66" cy="66" r="66"></circle>
	                            <g transform="translate(45.000000, 41.000000)" fill-rule="nonzero">
	                                <path d="M34.8050524,45.2017841 L3.31376207,45.2017841 C2.13058931,45.2017841 1.17149742,44.2426922 1.17149742,43.0595195 L1.17149742,3.21339698 C1.17149742,2.03022421 2.13058931,1.07113233 3.31376207,1.07113233 L34.8050524,1.07113233 C35.9882252,1.07113233 36.9473171,2.03022421 36.9473171,3.21339698 L36.9473171,43.0595195 C36.9473171,44.2426922 35.9881181,45.2017841 34.8050524,45.2017841 Z" fill="#04B2E2"></path>
	                                <rect fill="#04B2E2" x="7.17015978" y="8.99751153" width="10.2828703" height="10.2828703"></rect>
	                                <path d="M34.8050524,46.2729164 L3.31376207,46.2729164 C1.54189498,46.2729164 0.100365099,44.8313866 0.100365099,43.0595195 L0.100365099,23.1721269 C0.100365099,22.5805405 0.580018154,22.1009946 1.17149742,22.1009946 C1.76297669,22.1009946 2.24262975,22.5805405 2.24262975,23.1721269 L2.24262975,43.0595195 C2.24262975,43.6501418 2.72313971,44.1306518 3.31376207,44.1306518 L34.8050524,44.1306518 C35.3956748,44.1306518 35.8761848,43.6501418 35.8761848,43.0595195 L35.8761848,3.21339698 C35.8761848,2.62277461 35.3956748,2.14226465 34.8050524,2.14226465 L3.31376207,2.14226465 C2.72313971,2.14226465 2.24262975,2.62277461 2.24262975,3.21339698 L2.24262975,14.1389467 C2.24262975,14.7305331 1.76297669,15.210079 1.17149742,15.210079 C0.580018154,15.210079 0.100365099,14.7305331 0.100365099,14.1389467 L0.100365099,3.21339698 C0.100365099,1.44152988 1.54189498,0 3.31376207,0 L34.8050524,0 C36.5769195,0 38.0184494,1.44152988 38.0184494,3.21339698 L38.0184494,43.0595195 C38.0184494,44.8313866 36.5769195,46.2729164 34.8050524,46.2729164 Z" fill="#FFFFFF"></path>
	                                <path d="M1.17149742,20.0066096 C0.889789623,20.0066096 0.613437483,19.8919984 0.41420687,19.6927678 C0.214976258,19.4924661 0.100365099,19.217185 0.100365099,18.9344061 C0.100365099,18.6537694 0.214869144,18.3774173 0.41420687,18.1771156 C0.613437483,17.9778849 0.889789623,17.8643449 1.17149742,17.8643449 C1.45320523,17.8643449 1.72955737,17.9778849 1.92868086,18.1771156 C2.12791148,18.3774173 2.24262975,18.6526983 2.24262975,18.9344061 C2.24262975,19.217185 2.12801859,19.4935372 1.92868086,19.6927678 C1.72945025,19.8919984 1.45309811,20.0066096 1.17149742,20.0066096 Z" fill="#FFFFFF"></path>
	                                <path d="M5.46234641,50.5638725 C5.1806386,50.5638725 4.90428646,50.4503325 4.70516296,50.2500308 C4.50593235,50.0508002 4.39121408,49.7755192 4.39121408,49.4927402 C4.39121408,49.2110324 4.50582524,48.9346803 4.70516296,48.7354497 C4.90428646,48.5362191 5.1806386,48.4216079 5.46234641,48.4216079 C5.74523245,48.4216079 6.02040635,48.5362191 6.21963696,48.7354497 C6.41886757,48.9346803 6.53347873,49.2110324 6.53347873,49.4927402 C6.53347873,49.7755192 6.41897469,50.0508002 6.21963696,50.2500308 C6.02040635,50.4503325 5.74523245,50.5638725 5.46234641,50.5638725 Z" fill="#FFFFFF"></path>
	                                <path d="M39.0963299,50.5641939 L9.74730416,50.5641939 C9.15582489,50.5641939 8.67617183,50.0846479 8.67617183,49.4930616 C8.67617183,48.9014752 9.15582489,48.4219292 9.74730416,48.4219292 L39.0963299,48.4219292 C39.6869522,48.4219292 40.1674622,47.9414193 40.1674622,47.3507969 L40.1674622,5.36240976 C40.1674622,4.77082338 40.6471152,4.29127743 41.2385945,4.29127743 C41.8300738,4.29127743 42.3097268,4.77082338 42.3097268,5.36240976 L42.3097268,47.3507969 C42.3097268,49.122664 40.868197,50.5641939 39.0963299,50.5641939 Z" fill="#FFFFFF"></path>
	                                <path d="M17.4527088,20.3515142 L7.16983844,20.3515142 C6.57835917,20.3515142 6.09870612,19.8719682 6.09870612,19.2803819 L6.09870612,8.99751153 C6.09870612,8.40592515 6.57835917,7.92637921 7.16983844,7.92637921 L17.4527088,7.92637921 C18.044188,7.92637921 18.5238411,8.40592515 18.5238411,8.99751153 L18.5238411,19.2803819 C18.5238411,19.8719682 18.044188,20.3515142 17.4527088,20.3515142 Z M8.24097077,18.2092495 L16.3815764,18.2092495 L16.3815764,10.0686439 L8.24097077,10.0686439 L8.24097077,18.2092495 Z" fill="#FFFFFF"></path>
	                                <path d="M9.64393989,30.6479879 C9.3598756,30.6479879 9.08748665,30.5350905 8.88654222,30.3342532 L6.80511789,28.2528289 C6.38684072,27.8345517 6.38684072,27.1563107 6.80511789,26.7380336 C7.2237164,26.3198635 7.90174316,26.3197564 8.32002034,26.7380336 L9.64393989,28.0620602 L12.4913309,25.2146692 C12.9098223,24.796392 13.5878491,24.7964991 14.0062334,25.2146692 C14.4245106,25.6329463 14.4245106,26.3111873 14.0062334,26.7294645 L10.4014447,30.3342532 C10.2003931,30.5350905 9.9281113,30.6479879 9.64393989,30.6479879 Z" fill="#FFFFFF"></path>
	                                <path d="M31.5559868,28.8134595 L19.0594073,28.8134595 C18.467928,28.8134595 17.9882749,28.3339136 17.9882749,27.7423272 C17.9882749,27.1507408 18.467928,26.6711949 19.0594073,26.6711949 L31.5559868,26.6711949 C32.147466,26.6711949 32.6271191,27.1507408 32.6271191,27.7423272 C32.6271191,28.3339136 32.147466,28.8134595 31.5559868,28.8134595 Z" fill="#FFFFFF"></path>
	                                <path d="M30.9489761,10.0686439 L23.4510498,10.0686439 C22.8595705,10.0686439 22.3799175,9.58909791 22.3799175,8.99751153 C22.3799175,8.40592515 22.8595705,7.92637921 23.4510498,7.92637921 L30.9489761,7.92637921 C31.5404553,7.92637921 32.0201084,8.40592515 32.0201084,8.99751153 C32.0201084,9.58909791 31.5404553,10.0686439 30.9489761,10.0686439 Z" fill="#FFFFFF"></path>
	                                <path d="M30.9489761,15.210079 L23.4510498,15.210079 C22.8595705,15.210079 22.3799175,14.7305331 22.3799175,14.1389467 C22.3799175,13.5473603 22.8595705,13.0678144 23.4510498,13.0678144 L30.9489761,13.0678144 C31.5404553,13.0678144 32.0201084,13.5473603 32.0201084,14.1389467 C32.0201084,14.7305331 31.5404553,15.210079 30.9489761,15.210079 Z" fill="#FFFFFF"></path>
	                                <path d="M30.9489761,20.3515142 L23.4510498,20.3515142 C22.8595705,20.3515142 22.3799175,19.8719682 22.3799175,19.2803819 C22.3799175,18.6887955 22.8595705,18.2092495 23.4510498,18.2092495 L30.9489761,18.2092495 C31.5404553,18.2092495 32.0201084,18.6887955 32.0201084,19.2803819 C32.0201084,19.8719682 31.5404553,20.3515142 30.9489761,20.3515142 Z" fill="#FFFFFF"></path>
	                                <path d="M9.64393989,38.8279041 C9.3598756,38.8279041 9.08748665,38.7150068 8.88654222,38.5141694 L6.80511789,36.4327451 C6.38684072,36.0144679 6.38684072,35.336227 6.80511789,34.9179498 C7.2237164,34.4997797 7.90174316,34.4996726 8.32002034,34.9179498 L9.64393989,36.2419764 L12.4913309,33.3945854 C12.9098223,32.9763082 13.5878491,32.9764153 14.0062334,33.3945854 C14.4245106,33.8128626 14.4245106,34.4911035 14.0062334,34.9093807 L10.4014447,38.5141694 C10.2003931,38.7150068 9.9281113,38.8279041 9.64393989,38.8279041 Z" fill="#FFFFFF"></path>
	                                <path d="M31.5559868,36.9540652 L19.0594073,36.9540652 C18.467928,36.9540652 17.9882749,36.4745193 17.9882749,35.8829329 C17.9882749,35.2913465 18.467928,34.8118006 19.0594073,34.8118006 L31.5559868,34.8118006 C32.147466,34.8118006 32.6271191,35.2913465 32.6271191,35.8829329 C32.6271191,36.4745193 32.147466,36.9540652 31.5559868,36.9540652 Z" fill="#FFFFFF"></path>
	                            </g>
	                        </g>
	                    </g>
	                </g>
	            </g>
	        </g>
	    </g>
	</symbol>

	<symbol id="icon3" viewBox="0 0 132 132">
	    <!-- Generator: sketchtool 50.2 (55047) - http://www.bohemiancoding.com/sketch -->
	    <title>B9A607C0-9AF4-485A-ACB4-08D4A44B5718</title>
	    <desc>Created with sketchtool.</desc>
	    <defs></defs>
	    <g stroke="none" stroke-width="1" fill="none" fill-rule="evenodd">
	        <g transform="translate(-278.000000, -4018.000000)">
	            <g transform="translate(256.000000, 3932.000000)">
	                <g>
	                    <g>
	                        <g transform="translate(0.000000, 86.000000)">
	                            <g transform="translate(22.000000, 0.000000)">
	                                <circle fill="#006699" cx="66" cy="66" r="66"></circle>
	                                <g transform="translate(41.000000, 45.000000)" fill="#FFFFFF" fill-rule="nonzero">
	                                    <path d="M45.9347363,0.0894650864 L2.95120209,0.0894650864 C1.32393051,0.0894650864 0,1.4133956 0,3.04066717 L0,32.7177736 C0,34.3450451 1.32393051,35.6689757 2.95120209,35.6689757 L17.6800006,35.6689757 L17.6800006,37.8163287 C17.6800006,39.784847 16.0784133,41.3864344 14.1098949,41.3864344 L10.8638495,41.3864344 C10.2415086,41.3864344 9.73689496,41.8909526 9.73689496,42.5133889 C9.73689496,43.1358253 10.2415086,43.6403435 10.8638495,43.6403435 L38.0218979,43.6403435 C38.6442388,43.6403435 39.1488524,43.1358253 39.1488524,42.5133889 C39.1488524,41.8909526 38.6442388,41.3864344 38.0218979,41.3864344 L34.775757,41.3864344 C32.8072387,41.3864344 31.2056513,39.784847 31.2056513,37.8163287 L31.2056513,35.6690711 L45.9344498,35.6690711 C47.5617214,35.6690711 48.8857474,34.3451406 48.8857474,32.717869 L48.8857474,3.04066717 C48.8859384,1.4133956 47.5620078,0.0894650864 45.9347363,0.0894650864 Z M18.7065098,41.3866254 C19.4747447,40.3997405 19.9341007,39.1611694 19.9341007,37.8165196 L19.9341007,35.6691666 L28.9519331,35.6691666 L28.9519331,37.8165196 C28.9519331,39.1611694 29.4112891,40.399836 30.179524,41.3866254 L18.7065098,41.3866254 Z M46.6320292,32.717869 C46.6320292,33.1023684 46.3192356,33.4152575 45.9346408,33.4152575 L2.95120209,33.4152575 C2.56670272,33.4152575 2.25381362,33.1024639 2.25381362,32.717869 L2.25381362,26.7949366 L46.6320292,26.7949366 L46.6320292,32.717869 Z M46.6321247,24.540932 L2.2539091,24.540932 L2.2539091,3.04066717 C2.2539091,2.65616781 2.56670272,2.34327871 2.95129757,2.34327871 L45.9346408,2.34327871 C46.3191401,2.34327871 46.6321247,2.65607233 46.6321247,3.04066717 L46.6321247,24.540932 Z"></path>
	                                    <circle cx="24.4432556" cy="30.1054312" r="1.21622868"></circle>
	                                    <path d="M26.3753005,7.85364057 C25.9351361,7.41357165 25.2218024,7.41357165 24.781447,7.85364057 L16.8170492,15.8180383 C16.3769803,16.2581073 16.3769803,16.9717274 16.8170492,17.4118918 C17.0372269,17.631974 17.3254821,17.7419674 17.6140237,17.7419674 C17.9025653,17.7419674 18.1908205,17.631974 18.4109027,17.4118918 L26.3753005,9.44749403 C26.8153694,9.0074251 26.8153694,8.29380498 26.3753005,7.85364057 Z"></path>
	                                    <path d="M31.0958489,12.4690651 C30.6558754,12.0289962 29.9425418,12.0289962 29.5020909,12.4689697 L26.3292789,15.6415907 C25.88921,16.0817551 25.88921,16.7953752 26.3292789,17.2354441 C26.5493611,17.4555263 26.8377118,17.5655197 27.1261579,17.5655197 C27.4145086,17.5655197 27.7029547,17.4555263 27.9230369,17.2354441 L31.0958489,14.0628231 C31.5359178,13.6227542 31.5359178,12.9091341 31.0958489,12.4690651 Z"></path>
	                                </g>
	                            </g>
	                        </g>
	                    </g>
	                </g>
	            </g>
	        </g>
	    </g>
	</symbol>

	<symbol id="icon4" viewBox="0 0 132 132">
		<style type="text/css">
			.st0 {
				fill:#006699;
			}

			.st1 {
				fill:none;
				stroke:#FFFFFF;
				stroke-miterlimit:10;
			}

			.st2 {
				fill:none;
				stroke:#FFFFFF;
				stroke-width:2;
				stroke-linecap:round;
				stroke-linejoin:round;
				stroke-miterlimit:10;
			}
		</style>
		<title>D5430C23-3AC7-4AF2-BB45-69ED4CAE5AB5</title>
		<desc>Created with sketchtool.</desc>
		<circle class="st0" cx="66" cy="66" r="66"/>
		<ellipse class="st1" cx="33.1" cy="65.9" rx="1.5" ry="2"/>
		<path class="st2" d="M106.3,62.2h-3.2c-1.2-1.3-5.6-6.1-9.8-7.6c-2.6-0.9-4.8-1.4-6.5-1.8c-1.4-0.3-2.5-0.5-3.5-0.9
			c-1.2-0.5-2.4-0.3-3.3,0.7c-0.9,1-1.3,2.7-0.8,3.7c0.4,0.8,1.8,2,3.3,2.8l-17.5,0.5c-0.1,0-0.2,0-0.3,0c-1,0.3-2.8,1.4-2.8,3.3
			c0,2.2,1.9,3.4,2.9,3.4c0.3,0,5.4,0,9.7,0.1c-0.4,0.6-0.6,1.3-0.6,2.3c0,1.8,1.2,2.7,2.3,3c-0.4,0.5-0.6,1.2-0.6,2.1
			c0,2.1,1.6,3.4,4,3.4c0.1,0,0.3,0,0.4,0c-0.5,0.4-0.9,1-0.9,1.8c0,2.1,1.5,3.6,3.7,3.6H96c0.1,0,0.1,0,0.2,0c0.2,0,4.1-1,6.3-2.6
			h3.8c3.1,0,5.7-2.6,5.7-5.7v-6.2C112,64.7,109.5,62.2,106.3,62.2z"/>
		<polygon class="st2" points="23.2,43.2 37.4,48.5 37.4,83.5 23.2,88.8 "/>
		<rect x="23.2" y="41.8" class="st2" width="31.8" height="48.5"/>
	</symbol>


	<!-- <symbol id="icon4" version="1.1" viewBox="0 0 132 132">
		<title>D5430C23-3AC7-4AF2-BB45-69ED4CAE5AB5</title>
		<style type="text/css">
			.st0 {
				fill:#006699;
			}

			.st1 {
				stroke:#FFFFFF;
				stroke-miterlimit:10;
			}

			.st2 {
				stroke:#FFFFFF;
				stroke-width:2;
				stroke-linecap:round;
				stroke-linejoin:round;
				stroke-miterlimit:10;
			}
		</style>
		<desc>Created with sketchtool.</desc>
		<circle fill="#006699" class="st0" cx="66" cy="66" r="66"/>
		<ellipse stroke="#FFFFFF" stroke-width="2" stroke-miterlimit="10"  fill="#006699" class="st1" cx="33.1" cy="65.9" rx="1.5" ry="2"/>
		<path stroke="#FFFFFF" stroke-width="2" stroke-miterlimit="10" stroke-linecap="round" stroke-linejoin="round" fill="#006699" class="st2" d="M106.3,62.2h-3.2c-1.2-1.3-5.6-6.1-9.8-7.6c-2.6-0.9-4.8-1.4-6.5-1.8c-1.4-0.3-2.5-0.5-3.5-0.9
			c-1.2-0.5-2.4-0.3-3.3,0.7c-0.9,1-1.3,2.7-0.8,3.7c0.4,0.8,1.8,2,3.3,2.8l-17.5,0.5c-0.1,0-0.2,0-0.3,0c-1,0.3-2.8,1.4-2.8,3.3
			c0,2.2,1.9,3.4,2.9,3.4c0.3,0,5.4,0,9.7,0.1c-0.4,0.6-0.6,1.3-0.6,2.3c0,1.8,1.2,2.7,2.3,3c-0.4,0.5-0.6,1.2-0.6,2.1
			c0,2.1,1.6,3.4,4,3.4c0.1,0,0.3,0,0.4,0c-0.5,0.4-0.9,1-0.9,1.8c0,2.1,1.5,3.6,3.7,3.6H96c0.1,0,0.1,0,0.2,0c0.2,0,4.1-1,6.3-2.6
			h3.8c3.1,0,5.7-2.6,5.7-5.7v-6.2C112,64.7,109.5,62.2,106.3,62.2z"/>
		<polygon stroke="#FFFFFF" stroke-miterlimit="10" stroke-linejoin="round" stroke-linecap="round" stroke-width="2" fill="#006699" class="st2" points="23.2,43.2 37.4,48.5 37.4,83.5 23.2,88.8 "/>
		<rect stroke="#FFFFFF" stroke-miterlimit="10" stroke-linejoin="round" stroke-linecap="round" stroke-width="2" fill="#006699" x="23.2" y="41.8" class="st2" width="31.8" height="48.5"/>
	</symbol> -->


</svg>
