<?xml version="1.0" encoding="utf-8"?>
<!-- Generator: Adobe Illustrator 22.1.0, SVG Export Plug-In . SVG Version: 6.00 Build 0)  -->
<svg version="1.1" id="Layer_1" xmlns="http://www.w3.org/2000/svg" xmlns:xlink="http://www.w3.org/1999/xlink" x="0px" y="0px"
	viewBox="0 0 132 132" style="enable-background:new 0 0 132 132;" xml:space="preserve">
	<style type="text/css">
		.st0 {
			fill:#006699;
			<!-- fill-opacity: 0;
			animation: 2s linear 0 fadein; -->
		}

		<!-- @keyframes fadein {
			to {
				fill-opacity: 1;
			}
		} -->

		.st1 {
			fill:none;
			stroke:#FFFFFF;
			stroke-miterlimit:10;
		}

		.st2 {
			fill:none;
			stroke:#FFFFFF;
			stroke-width:2;
			stroke-linecap:round;
			stroke-linejoin:round;
			stroke-miterlimit:10;
		}
	</style>
	<title>D5430C23-3AC7-4AF2-BB45-69ED4CAE5AB5</title>
	<desc>Created with sketchtool.</desc>
	<circle class="st0" cx="66" cy="66" r="66"/>
	<ellipse class="st1" cx="33.1" cy="65.9" rx="1.5" ry="2"/>
	<path class="st2" d="M106.3,62.2h-3.2c-1.2-1.3-5.6-6.1-9.8-7.6c-2.6-0.9-4.8-1.4-6.5-1.8c-1.4-0.3-2.5-0.5-3.5-0.9
		c-1.2-0.5-2.4-0.3-3.3,0.7c-0.9,1-1.3,2.7-0.8,3.7c0.4,0.8,1.8,2,3.3,2.8l-17.5,0.5c-0.1,0-0.2,0-0.3,0c-1,0.3-2.8,1.4-2.8,3.3
		c0,2.2,1.9,3.4,2.9,3.4c0.3,0,5.4,0,9.7,0.1c-0.4,0.6-0.6,1.3-0.6,2.3c0,1.8,1.2,2.7,2.3,3c-0.4,0.5-0.6,1.2-0.6,2.1
		c0,2.1,1.6,3.4,4,3.4c0.1,0,0.3,0,0.4,0c-0.5,0.4-0.9,1-0.9,1.8c0,2.1,1.5,3.6,3.7,3.6H96c0.1,0,0.1,0,0.2,0c0.2,0,4.1-1,6.3-2.6
		h3.8c3.1,0,5.7-2.6,5.7-5.7v-6.2C112,64.7,109.5,62.2,106.3,62.2z"/>
	<polygon class="st2" points="23.2,43.2 37.4,48.5 37.4,83.5 23.2,88.8 "/>
	<rect x="23.2" y="41.8" class="st2" width="31.8" height="48.5"/>
</svg>
